<svg width="62" height="76" fill="none" xmlns="http://www.w3.org/2000/svg"><path d="M31.026 75c-.09-3.783-11.457-7.026-14.203-8.716-.492-.854-1.932-2.563-3.75-2.563-1.041-1.861-3.988-5.583-7.442-5.583.909-1.71 2.181-6.05 0-9.741 1.534-1.178 2.76-4.57-4.602-8.716-.19-3.342.466-10.562 4.602-12.704 4.136-2.142 4.791-8.45 4.602-11.337.928 4.33 2.227 14.846 0 22.275-2.227 7.428 3.465 10.956 6.59 11.792.114 3.532 1.307 10.31 5.17 9.171-.72-.76-2.068-2.802-1.704-4.899 3.545 3.145 2.083-2.411.909-5.582.272-3.692-2.803-6.058-4.375-6.78C15.261 32.495 18.263 8.482 20.289 1c-1.667 11.336-4.261 35.057-1.307 39.25 2.954 4.193 3.693 7.178 3.693 8.147 1.23 3.36 2.954 9.73 0 8.317-2.954-1.413-1.686.854-.682 2.164-3.863 1.14-5.056-5.64-5.17-9.171-3.125-.836-8.817-4.364-6.59-11.792 2.227-7.429.928-17.945 0-22.274.416 3.588-.023 11.495-5.114 14.412-.833.55-2.408 2.894-2.045 7.862 2.86 2.582 7.977 8.294 5.568 10.482.72 2.272 1.727 7.118 0 8.317 1.477.588 4.431 2.199 4.431 3.93 1.785.627 5.33 2.325 5.227 4.102C22.997 66.968 32.117 72.129 31.026 75z" fill="#7F1D1D"/><path d="M30.974 75c.09-3.783 11.457-7.026 14.203-8.716.492-.854 1.932-2.563 3.75-2.563 1.041-1.861 3.988-5.583 7.442-5.583-.909-1.71-2.181-6.05 0-9.741-1.534-1.178-2.76-4.57 4.602-8.716.19-3.342-.466-10.562-4.602-12.704-4.136-2.142-4.791-8.45-4.602-11.337-.928 4.33-2.227 14.846 0 22.275 2.227 7.428-3.465 10.956-6.59 11.792-.114 3.532-1.307 10.31-5.17 9.171.72-.76 2.068-2.802 1.704-4.899-3.545 3.145-2.083-2.411-.909-5.582-.272-3.692 2.803-6.058 4.375-6.78C46.739 32.495 43.737 8.482 41.711 1c1.667 11.336 4.261 35.057 1.307 39.25-2.954 4.193-3.693 7.178-3.693 8.147-1.23 3.36-2.954 9.73 0 8.317 2.954-1.413 1.686.854.682 2.164 3.863 1.14 5.056-5.64 5.17-9.171 3.125-.836 8.817-4.364 6.59-11.792-2.227-7.429-.928-17.945 0-22.274-.416 3.588.023 11.495 5.114 14.412.833.55 2.408 2.894 2.045 7.862-2.86 2.582-7.977 8.294-5.568 10.482-.72 2.272-1.727 7.118 0 8.317-1.477.588-4.431 2.199-4.431 3.93-1.785.627-5.33 2.325-5.227 4.102C39.003 66.968 29.883 72.129 30.974 75z" fill="#7F1D1D"/><path d="M10.233 15.64c.189 2.887-.466 9.195-4.602 11.337C1.495 29.119.839 36.339 1.029 39.68c7.363 4.147 6.136 7.538 4.602 8.716 2.181 3.69.909 8.032 0 9.74 3.454 0 6.4 3.723 7.442 5.584 1.818 0 3.258 1.709 3.75 2.563 2.746 1.69 14.113 4.933 14.203 8.716 1.091-2.871-8.03-8.032-12.726-10.254.103-1.777-3.442-3.475-5.227-4.102 0-1.731-2.954-3.342-4.431-3.93 1.727-1.2.72-6.045 0-8.317 2.409-2.188-2.708-7.9-5.568-10.483-.363-4.967 1.212-7.31 2.045-7.86 5.09-2.918 5.53-10.825 5.114-14.413zm0 0c.928 4.33 2.227 14.846 0 22.274-2.227 7.429 3.465 10.957 6.59 11.793.114 3.532 1.307 10.31 5.17 9.171m0 0c-.72-.76-2.068-2.802-1.704-4.899 3.545 3.145 2.083-2.411.909-5.582.272-3.692-2.803-6.058-4.375-6.78C15.261 32.495 18.263 8.482 20.289 1m1.704 57.878c-1.004-1.31-2.272-3.577.682-2.164 2.954 1.412 1.23-4.956 0-8.317 0-.969-.739-3.954-3.693-8.147S18.622 12.336 20.289 1m0 0c.397 4.823 2.659 15.768 1.704 25.065-.954 9.297-.398 11.147 0 13.616 1.42 2.221 3.806 1.823 5.17 10.026-2.045 0-.852 10.026 3.863 10.026M51.767 15.64c-.189 2.886.466 9.194 4.602 11.336 4.136 2.142 4.791 9.362 4.602 12.704-7.363 4.147-6.136 7.538-4.602 8.716-2.181 3.69-.909 8.032 0 9.74-3.454 0-6.4 3.723-7.442 5.584-1.818 0-3.258 1.709-3.75 2.563-2.746 1.69-14.113 4.933-14.203 8.716-1.091-2.871 8.03-8.032 12.726-10.254-.103-1.777 3.441-3.475 5.227-4.102 0-1.731 2.954-3.342 4.431-3.93-1.727-1.2-.72-6.045 0-8.317-2.409-2.188 2.708-7.9 5.568-10.483.363-4.967-1.212-7.31-2.045-7.86-5.09-2.918-5.53-10.825-5.114-14.413zm0 0c-.928 4.329-2.227 14.845 0 22.273 2.227 7.429-3.465 10.957-6.59 11.793-.114 3.532-1.307 10.31-5.17 9.171m0 0c.72-.76 2.068-2.802 1.704-4.899-3.545 3.145-2.083-2.411-.909-5.582-.272-3.692 2.803-6.058 4.375-6.78C46.739 32.495 43.737 8.482 41.711 1m-1.704 57.878c1.004-1.31 2.273-3.577-.682-2.164-2.954 1.412-1.23-4.956 0-8.317 0-.969.739-3.954 3.693-8.147s.36-27.914-1.307-39.25m0 0c-.397 4.823-2.658 15.768-1.704 25.065s.398 11.147 0 13.616c-1.42 2.221-3.806 1.823-5.17 10.026 2.045 0 .852 10.026-3.863 10.026" stroke="#000"/></svg>