<svg width="203" height="204" fill="none" xmlns="http://www.w3.org/2000/svg"><path d="M179.336.25L67.961 15.438c-10.125 1.028-17.086 10.124-17.086 20.25v104.097c-4.667-.83-9.73-.83-15.188.317C16.466 145.164.25 162.131.25 179.336c0 17.205 16.216 27.527 35.438 22.465 19.221-5.063 35.437-22.346 35.437-39.551V75.238L182.5 60.368v68.659c-4.667-.83-9.729-.474-15.188.95-19.221 5.062-35.437 22.029-35.437 39.234 0 17.205 16.216 27.527 35.437 22.465 19.222-5.063 35.438-22.346 35.438-39.551V20.5c0-12.142-11.272-21.278-23.414-20.25z" fill="#000"/></svg>